<?xml version="1.0" encoding="UTF-8" standalone="no"?><!DOCTYPE svg PUBLIC "-//W3C//DTD SVG 1.1//EN" "http://www.w3.org/Graphics/SVG/1.1/DTD/svg11.dtd">
<!-- Generated by graphviz version 2.40.1 (20161225.0304)
     Created at https://bit.ly/3mLbVkg -->
 <!-- Title: %0 Pages: 1 --><svg xmlns="http://www.w3.org/2000/svg" xmlns:xlink="http://www.w3.org/1999/xlink" width="467pt" height="188pt" viewBox="0.00 0.00 466.97 188.00">
<g id="graph0" class="graph" transform="scale(1 1) rotate(0) translate(4 184)">
<title>%0</title>
<polygon fill="#ffffff" stroke="transparent" points="-4,4 -4,-184 462.9686,-184 462.9686,4 -4,4"/>
<!-- metal -->
<g id="node1" class="node">
<title>metal</title>
<ellipse fill="none" stroke="#000000" cx="285.6585" cy="-162" rx="32.4788" ry="18"/>
<text text-anchor="middle" x="285.6585" y="-157.8" font-family="Times,serif" font-size="14.00" fill="#000000">metal</text>
</g>
<!-- precious -->
<g id="node2" class="node">
<title>precious</title>
<ellipse fill="none" stroke="#000000" cx="234.6585" cy="-90" rx="44.0002" ry="18"/>
<text text-anchor="middle" x="234.6585" y="-85.8" font-family="Times,serif" font-size="14.00" fill="#000000">precious</text>
</g>
<!-- metal&#45;&gt;precious -->
<g id="edge1" class="edge">
<title>metal-&gt;precious</title>
<path fill="none" stroke="#000000" d="M273.5722,-144.937C267.3754,-136.1886 259.7012,-125.3545 252.8099,-115.6256"/>
<polygon fill="#000000" stroke="#000000" points="255.6486,-113.5779 247.0123,-107.4407 249.9364,-117.624 255.6486,-113.5779"/>
</g>
<!-- coinage -->
<g id="node3" class="node">
<title>coinage</title>
<ellipse fill="none" stroke="#000000" cx="337.6585" cy="-90" rx="41.1316" ry="18"/>
<text text-anchor="middle" x="337.6585" y="-85.8" font-family="Times,serif" font-size="14.00" fill="#000000">coinage</text>
</g>
<!-- metal&#45;&gt;coinage -->
<g id="edge2" class="edge">
<title>metal-&gt;coinage</title>
<path fill="none" stroke="#000000" d="M297.9818,-144.937C304.3,-136.1886 312.1247,-125.3545 319.1511,-115.6256"/>
<polygon fill="#000000" stroke="#000000" points="322.0449,-117.5967 325.0625,-107.4407 316.3701,-113.4983 322.0449,-117.5967"/>
</g>
<!-- platinum -->
<g id="node4" class="node">
<title>platinum</title>
<ellipse fill="none" stroke="#000000" cx="162.6585" cy="-18" rx="45.2439" ry="18"/>
<text text-anchor="middle" x="162.6585" y="-13.8" font-family="Times,serif" font-size="14.00" fill="#000000">platinum</text>
</g>
<!-- precious&#45;&gt;platinum -->
<g id="edge3" class="edge">
<title>precious-&gt;platinum</title>
<path fill="none" stroke="#000000" d="M217.9593,-73.3008C208.733,-64.0746 197.1055,-52.447 186.896,-42.2375"/>
<polygon fill="#000000" stroke="#000000" points="189.3131,-39.7049 179.7671,-35.1086 184.3633,-44.6546 189.3131,-39.7049"/>
</g>
<!-- palladium -->
<g id="node5" class="node">
<title>palladium</title>
<ellipse fill="none" stroke="#000000" cx="49.6585" cy="-18" rx="49.8175" ry="18"/>
<text text-anchor="middle" x="49.6585" y="-13.8" font-family="Times,serif" font-size="14.00" fill="#000000">palladium</text>
</g>
<!-- precious&#45;&gt;palladium -->
<g id="edge4" class="edge">
<title>precious-&gt;palladium</title>
<path fill="none" stroke="#000000" d="M202.8559,-77.6228C172.579,-65.8393 126.7689,-48.0105 93.1282,-34.9179"/>
<polygon fill="#000000" stroke="#000000" points="94.1368,-31.5548 83.5483,-31.1895 91.598,-38.0782 94.1368,-31.5548"/>
</g>
<!-- gold -->
<g id="node6" class="node">
<title>gold</title>
<ellipse fill="none" stroke="#000000" cx="337.6585" cy="-18" rx="28.4127" ry="18"/>
<text text-anchor="middle" x="337.6585" y="-13.8" font-family="Times,serif" font-size="14.00" fill="#000000">gold</text>
</g>
<!-- precious&#45;&gt;gold -->
<g id="edge5" class="edge">
<title>precious-&gt;gold</title>
<path fill="none" stroke="#000000" d="M257.008,-74.3771C272.6269,-63.459 293.5797,-48.8123 310.2141,-37.1844"/>
<polygon fill="#000000" stroke="#000000" points="312.2772,-40.0127 318.468,-31.4147 308.2667,-34.2754 312.2772,-40.0127"/>
</g>
<!-- silver -->
<g id="node7" class="node">
<title>silver</title>
<ellipse fill="none" stroke="#000000" cx="258.6585" cy="-18" rx="32.4788" ry="18"/>
<text text-anchor="middle" x="258.6585" y="-13.8" font-family="Times,serif" font-size="14.00" fill="#000000">silver</text>
</g>
<!-- precious&#45;&gt;silver -->
<g id="edge6" class="edge">
<title>precious-&gt;silver</title>
<path fill="none" stroke="#000000" d="M240.7147,-71.8314C243.3783,-63.8406 246.5645,-54.2819 249.508,-45.4514"/>
<polygon fill="#000000" stroke="#000000" points="252.8454,-46.5071 252.6874,-35.9134 246.2046,-44.2934 252.8454,-46.5071"/>
</g>
<!-- coinage&#45;&gt;gold -->
<g id="edge7" class="edge">
<title>coinage-&gt;gold</title>
<path fill="none" stroke="#000000" d="M337.6585,-71.8314C337.6585,-64.131 337.6585,-54.9743 337.6585,-46.4166"/>
<polygon fill="#000000" stroke="#000000" points="341.1586,-46.4132 337.6585,-36.4133 334.1586,-46.4133 341.1586,-46.4132"/>
</g>
<!-- coinage&#45;&gt;silver -->
<g id="edge8" class="edge">
<title>coinage-&gt;silver</title>
<path fill="none" stroke="#000000" d="M319.7322,-73.6621C308.9024,-63.7919 294.9517,-51.0773 283.1181,-40.2923"/>
<polygon fill="#000000" stroke="#000000" points="285.4501,-37.6821 275.7015,-33.5329 280.7349,-42.8558 285.4501,-37.6821"/>
</g>
<!-- copper -->
<g id="node8" class="node">
<title>copper</title>
<ellipse fill="none" stroke="#000000" cx="421.6585" cy="-18" rx="37.1213" ry="18"/>
<text text-anchor="middle" x="421.6585" y="-13.8" font-family="Times,serif" font-size="14.00" fill="#000000">copper</text>
</g>
<!-- coinage&#45;&gt;copper -->
<g id="edge9" class="edge">
<title>coinage-&gt;copper</title>
<path fill="none" stroke="#000000" d="M356.7194,-73.6621C368.1551,-63.86 382.8638,-51.2526 395.3902,-40.5157"/>
<polygon fill="#000000" stroke="#000000" points="397.9355,-42.9438 403.2503,-33.7784 393.3799,-37.629 397.9355,-42.9438"/>
</g>
</g>
</svg>